<?xml version="1.0" standalone="no"?><!DOCTYPE svg PUBLIC "-//W3C//DTD SVG 1.1//EN" "http://www.w3.org/Graphics/SVG/1.1/DTD/svg11.dtd"><svg t="1648467798667" class="icon" viewBox="0 0 1024 1024" version="1.1" xmlns="http://www.w3.org/2000/svg" p-id="2699" xmlns:xlink="http://www.w3.org/1999/xlink" width="200" height="200"><defs><style type="text/css">@font-face { font-family: feedback-iconfont; src: url("//at.alicdn.com/t/font_1031158_u69w8yhxdu.woff2?t=1630033759944") format("woff2"), url("//at.alicdn.com/t/font_1031158_u69w8yhxdu.woff?t=1630033759944") format("woff"), url("//at.alicdn.com/t/font_1031158_u69w8yhxdu.ttf?t=1630033759944") format("truetype"); }
</style></defs><path d="M444.109773 698.295959h132.555668l29.701974 92.330708 81.637998 12.729417v46.674531s-60.422302 29.701974-174.98706 34.963467a283.271971 283.271971 0 0 1-194.166048-72.133366l105.060126-19.009263z" fill="#FFECE3" p-id="2700" data-spm-anchor-id="a313x.7781069.0.i2" class="selected"></path><path d="M233.310619 840.186532c-42.431392 49.559865-50.91767 166.840232-50.91767 166.840232h653.443432s9.844083-103.193145-46.674531-158.353953a184.661417 184.661417 0 0 0-104.550949-43.110294 253.230545 253.230545 0 0 1-162.087916 55.160809 337.753878 337.753878 0 0 1-189.922909-51.936023 97.25275 97.25275 0 0 0-99.289457 31.399229z" fill="#FFF385" p-id="2701" data-spm-anchor-id="a313x.7781069.0.i3" class=""></path><path d="M684.610901 528.909843m-46.674531 0a46.674531 46.674531 0 1 0 93.349062 0 46.674531 46.674531 0 1 0-93.349062 0Z" fill="#EC7094" p-id="2702"></path><path d="M339.389099 528.909843m-46.674531 0a46.674531 46.674531 0 1 0 93.349062 0 46.674531 46.674531 0 1 0-93.349062 0Z" fill="#EC7094" p-id="2703"></path><path d="M244.682232 340.853915v-99.628907S285.076917 24.82491 526.93585 24.82491 775.074628 266.683843 775.074628 266.683843l-4.243139 76.376505s61.610381 29.701974 48.880963 80.619644-74.170073 59.403948-74.170072 59.403948-38.188253 220.643237-231.166222 220.643237S282.870485 489.363786 282.870485 489.363786 206.49398 463.904951 206.49398 410.950574a74.339798 74.339798 0 0 1 38.188252-70.096659z" fill="#FFECE3" p-id="2704"></path><path d="M487.220067 544.524595a45.316726 23.252403 90 1 0 46.504806 0 45.316726 23.252403 90 1 0-46.504806 0Z" fill="#EC7094" p-id="2705"></path><path d="M684.610901 528.909843m-46.674531 0a46.674531 46.674531 0 1 0 93.349062 0 46.674531 46.674531 0 1 0-93.349062 0Z" fill="#EC7094" p-id="2706"></path><path d="M339.389099 528.909843m-46.674531 0a46.674531 46.674531 0 1 0 93.349062 0 46.674531 46.674531 0 1 0-93.349062 0Z" fill="#EC7094" p-id="2707"></path><path d="M512 718.493301a242.368109 242.368109 0 0 1-242.028658-242.028658v-151.564931a16.972557 16.972557 0 0 1 33.945113 0v151.564931a208.083545 208.083545 0 0 0 416.16709 0v-151.564931a16.972557 16.972557 0 0 1 33.945113 0v151.564931A242.368109 242.368109 0 0 1 512 718.493301z" fill="#4C4497" p-id="2708" data-spm-anchor-id="a313x.7781069.0.i4"></path><path d="M745.202929 500.905125v-33.945114a53.803005 53.803005 0 1 0 0-107.606009v-33.945113a87.748118 87.748118 0 1 1 0 175.496236zM278.797071 500.905125a87.748118 87.748118 0 1 1 0-175.496236v33.945113a53.803005 53.803005 0 1 0 0 107.606009zM630.807897 355.110863a12.729418 12.729418 0 0 1-7.977102-2.885335 46.844256 46.844256 0 0 0-26.816639-7.128474 46.165354 46.165354 0 0 0-27.495542 7.2982 12.899143 12.899143 0 0 1-17.821185-1.866982 12.559692 12.559692 0 0 1 1.52753-16.972556 79.092114 79.092114 0 0 1 87.408667 0 12.729418 12.729418 0 0 1-8.825729 21.555147zM463.458488 355.110863a12.729418 12.729418 0 0 1-7.977102-2.885335A46.844256 46.844256 0 0 0 427.137217 345.097054a46.165354 46.165354 0 0 0-27.325817 7.2982 12.899143 12.899143 0 0 1-17.821184-1.866982 12.559692 12.559692 0 0 1 1.52753-16.972556 69.417757 69.417757 0 0 1 43.619471-14.087222 70.096659 70.096659 0 0 1 43.789196 13.068868 12.729418 12.729418 0 0 1-8.146827 22.573501z" fill="#4C4497" p-id="2709"></path><path d="M775.753531 415.872616a8.486278 8.486278 0 0 1-4.073414-1.018354l-27.495542-14.93585a8.486278 8.486278 0 1 1 8.146827-14.935849l27.495542 14.935849a8.486278 8.486278 0 0 1-4.073413 15.954204zM248.246469 415.872616a8.486278 8.486278 0 0 1-4.073413-15.954204l27.495542-14.935849a8.486278 8.486278 0 1 1 8.146827 14.935849l-27.495542 14.93585a8.486278 8.486278 0 0 1-4.073414 1.018354zM841.607051 1023.999321a16.972557 16.972557 0 0 1-16.972557-14.766124l-10.183534-78.413212a121.693231 121.693231 0 0 0-108.454637-105.739028l-77.225133-7.977102A60.931478 60.931478 0 0 1 575.307636 769.410971l-14.766124-71.115012a16.972557 16.972557 0 1 1 33.945113-6.958749l14.766125 71.115013a27.156091 27.156091 0 0 0 23.761579 21.555147l77.225133 7.977101a155.468619 155.468619 0 0 1 138.665788 135.780454l10.183534 78.413212a16.972557 16.972557 0 0 1-15.275301 17.821184zM182.392949 1023.999321h-2.206432a16.972557 16.972557 0 0 1-14.596399-19.009263l10.183534-78.413212a155.468619 155.468619 0 0 1 138.665788-135.780454l77.225133-7.977101a27.156091 27.156091 0 0 0 23.76158-21.555147l14.766124-71.115013a16.972557 16.972557 0 1 1 33.945113 6.958749L448.692364 769.410971a60.931478 60.931478 0 0 1-53.633279 48.371787l-77.225133 7.977101a121.693231 121.693231 0 0 0-108.454637 105.739028l-10.183534 78.413212a16.972557 16.972557 0 0 1-16.802832 14.087222z" fill="#4C4497" p-id="2710"></path><path d="M512 867.8518a331.643757 331.643757 0 0 1-193.656872-57.197516 8.486278 8.486278 0 0 1 10.183534-13.578046A314.33175 314.33175 0 0 0 512 850.879243c11.371613 0 22.743226 0 33.945113-1.52753a8.486278 8.486278 0 0 1 1.52753 16.972557c-11.711064 1.018353-23.591854 1.52753-35.472643 1.52753zM587.358152 860.383875a8.486278 8.486278 0 0 1-1.697256-16.972557l11.201887-2.545883a8.486278 8.486278 0 1 1 3.903688 16.972556l-11.880789 2.715609zM631.995976 847.993908a8.486278 8.486278 0 0 1-2.885335-16.972556 257.473685 257.473685 0 0 0 62.459009-31.568956 8.486278 8.486278 0 0 1 9.844082 13.917497 275.63432 275.63432 0 0 1-66.532422 33.945113 8.486278 8.486278 0 0 1-2.885334 0.678902zM512 601.043209c-20.536794 0-36.660722-23.931305-36.660722-54.651633s16.123929-54.651632 36.660722-54.651632 36.660722 23.931305 36.660722 54.651632-16.123929 54.651632-36.660722 54.651633z m0-92.330708c-9.334906 0-19.688166 15.445027-19.688166 37.679075s10.35326 37.679076 19.688166 37.679076 19.688166-15.445027 19.688166-37.679076-10.35326-37.679076-19.688166-37.679075zM790.349929 358.335649l-33.945113-1.018354 1.866981-63.137911a246.441523 246.441523 0 1 0-492.204143 0l1.866981 63.816813-33.945113 1.018354-2.206433-64.835167a280.386636 280.386636 0 1 1 560.09437 0z" fill="#4C4497" p-id="2711"></path><path d="M428.495021 100.522513a8.486278 8.486278 0 0 1-3.394511-16.972557A228.450613 228.450613 0 0 1 453.444679 73.536148a8.486278 8.486278 0 0 1 4.752316 16.972556 210.459703 210.459703 0 0 0-26.307462 9.674358 8.486278 8.486278 0 0 1-3.394512 0.339451zM344.990042 164.848503a8.486278 8.486278 0 0 1-6.619297-13.747771 232.354301 232.354301 0 0 1 53.803005-48.880964 8.486278 8.486278 0 0 1 9.334906 14.256948 215.381744 215.381744 0 0 0-49.899317 45.316726 8.486278 8.486278 0 0 1-6.619297 3.055061zM627.24366 412.987281h-60.761753a12.729418 12.729418 0 0 1 0-25.458835h60.761753a12.729418 12.729418 0 0 1 0 25.458835zM457.518093 412.987281h-60.761753a12.729418 12.729418 0 1 1 0-25.458835h60.761753a12.729418 12.729418 0 1 1 0 25.458835z" fill="#4C4497" p-id="2712"></path></svg>